<svg xmlns="http://www.w3.org/2000/svg" xmlns:xlink="http://www.w3.org/1999/xlink" viewBox="0 0 345.04 76.01"><defs><style>.cls-1{fill:#fff;}.cls-2{fill:url(#Unbenannter_Verlauf_7);}.cls-3{fill:url(#Unbenannter_Verlauf_5);}.cls-4{fill:url(#Neues_Verlaufsfeld_1);}</style><linearGradient id="Unbenannter_Verlauf_7" x1="63.54" y1="65.12" x2="15.36" y2="39.73" gradientUnits="userSpaceOnUse"><stop offset="0" stop-color="#4e1948"/><stop offset="1" stop-color="#1c1537"/></linearGradient><linearGradient id="Unbenannter_Verlauf_5" x1="32.94" y1="7.96" x2="59.47" y2="67.51" gradientUnits="userSpaceOnUse"><stop offset="0" stop-color="#a81255"/><stop offset="1" stop-color="#4e1948"/></linearGradient><linearGradient id="Neues_Verlaufsfeld_1" x1="13.24" y1="68.48" x2="39.19" y2="8.93" gradientUnits="userSpaceOnUse"><stop offset="0" stop-color="#e72867"/><stop offset="1" stop-color="#a81255"/></linearGradient></defs><g id="Ebene_2" data-name="Ebene 2"><g id="Ebene_1-2" data-name="Ebene 1"><path class="cls-1" d="M119.05,45.11a2.35,2.35,0,0,1-.87,1.84,3,3,0,0,1-2,.76,2.57,2.57,0,0,1-1.38-.39,2.67,2.67,0,0,1-1-1.19l-1.48-3.33H101.65l-1.51,3.33a2.65,2.65,0,0,1-1,1.19,2.62,2.62,0,0,1-1.4.39,3,3,0,0,1-2-.76,2.3,2.3,0,0,1-.91-1.84,2.81,2.81,0,0,1,.3-1.22L103.8,26a3,3,0,0,1,1.26-1.36,3.68,3.68,0,0,1,1.86-.48,3.73,3.73,0,0,1,1.85.48A3,3,0,0,1,110.05,26l8.7,17.86A2.81,2.81,0,0,1,119.05,45.11ZM103.7,38.26h6.59L107,30.91Z"/><path class="cls-1" d="M132.18,46.89a2.81,2.81,0,0,1-.73-2.08V27.19a2.53,2.53,0,0,1,2.8-2.8h6.66a14.55,14.55,0,0,1,6.64,1.4,9.87,9.87,0,0,1,4.26,4A12.28,12.28,0,0,1,153.29,36a12.58,12.58,0,0,1-1.46,6.25,9.74,9.74,0,0,1-4.25,4,14.89,14.89,0,0,1-6.67,1.38h-6.66A2.8,2.8,0,0,1,132.18,46.89Zm13.39-5.82a6.84,6.84,0,0,0,1.7-5.09,6.79,6.79,0,0,0-1.7-5.07,7,7,0,0,0-5.09-1.65h-3V42.74h3A7,7,0,0,0,145.57,41.07Z"/><path class="cls-1" d="M170.74,46.44a10,10,0,0,1-4-4.15A13.38,13.38,0,0,1,165.29,36a13.41,13.41,0,0,1,1.41-6.31,9.93,9.93,0,0,1,4-4.13,13.87,13.87,0,0,1,12.35,0,9.77,9.77,0,0,1,4,4.13,13.41,13.41,0,0,1,1.4,6.31,13.38,13.38,0,0,1-1.41,6.31,10,10,0,0,1-4,4.15,13.64,13.64,0,0,1-12.32,0Zm10.29-5A8.54,8.54,0,0,0,182.52,36a8.39,8.39,0,0,0-1.5-5.4,5.51,5.51,0,0,0-8.22,0A8.46,8.46,0,0,0,171.32,36a8.52,8.52,0,0,0,1.48,5.44,5.5,5.5,0,0,0,8.23,0Z"/><path class="cls-1" d="M202.81,47a3,3,0,0,1-.81-2.19V27.19a2.53,2.53,0,0,1,2.8-2.8h8.43a8.55,8.55,0,0,1,6,2,7,7,0,0,1,2.14,5.45,7,7,0,0,1-2.16,5.43,8.5,8.5,0,0,1-6,2h-5.17v5.6a2.93,2.93,0,0,1-.82,2.19,3.06,3.06,0,0,1-2.24.81A3,3,0,0,1,202.81,47ZM214.9,34a2.65,2.65,0,0,0,.81-2.14q0-2.86-3.3-2.87h-4.35v5.7h4.35A3.78,3.78,0,0,0,214.9,34Z"/><path class="cls-1" d="M240.85,47a2.87,2.87,0,0,1-.85-2.16V29.29h-4.64a3.22,3.22,0,0,1-2.16-.61,2.31,2.31,0,0,1-.71-1.86A2.27,2.27,0,0,1,233.2,25a3.28,3.28,0,0,1,2.16-.59h15.42a3.31,3.31,0,0,1,2.16.59,2.26,2.26,0,0,1,.7,1.84,2.31,2.31,0,0,1-.7,1.86,3.26,3.26,0,0,1-2.16.61h-4.65V44.81a2.86,2.86,0,0,1-.84,2.16,3.45,3.45,0,0,1-4.44,0Z"/><path class="cls-1" d="M267.23,47a3,3,0,0,1-.8-2.19V27.19a2.78,2.78,0,0,1,3-3,3,3,0,0,1,2.24.81,2.89,2.89,0,0,1,.83,2.16V44.81a2.93,2.93,0,0,1-.83,2.19,3,3,0,0,1-2.24.81A3,3,0,0,1,267.23,47Z"/><path class="cls-1" d="M289.37,45.34c-1.74-1.71-2.62-4.22-2.62-7.51V27.19A3.06,3.06,0,0,1,291.88,25a3,3,0,0,1,.8,2.16V38.06a5.91,5.91,0,0,0,1.12,3.85,4.54,4.54,0,0,0,6.46,0,5.85,5.85,0,0,0,1.12-3.85V27.19a2.79,2.79,0,0,1,3-3,3,3,0,0,1,2.17.81,2.89,2.89,0,0,1,.82,2.16V37.83q0,4.91-2.65,7.49T297,47.91Q292,47.91,289.37,45.34Z"/><path class="cls-1" d="M344.25,25a3,3,0,0,1,.79,2.15V45.11a2.67,2.67,0,0,1-.72,2,2.85,2.85,0,0,1-3.81,0,2.64,2.64,0,0,1-.74-2V35.42L336,42.34a4.35,4.35,0,0,1-1.18,1.5,2.5,2.5,0,0,1-1.49.44,2.47,2.47,0,0,1-1.48-.44,4.24,4.24,0,0,1-1.18-1.5L327,35.62v9.49a2.64,2.64,0,0,1-.74,2,2.61,2.61,0,0,1-1.93.74,2.57,2.57,0,0,1-1.89-.73,2.64,2.64,0,0,1-.74-2V27.19a2.94,2.94,0,0,1,.81-2.15,2.76,2.76,0,0,1,2.05-.82,2.74,2.74,0,0,1,1.62.51,4,4,0,0,1,1.22,1.47l6.06,11.4,6-11.4a3.08,3.08,0,0,1,2.77-2A2.74,2.74,0,0,1,344.25,25Z"/><path class="cls-1" d="M36.34,0A16.62,16.62,0,0,0,21.48,9.1l-.07.13-.06.13L1.56,52.26l-.15.32-.11.33A22.11,22.11,0,0,0,0,59.31a16.7,16.7,0,0,0,31.68,7.37l17.19,7.73A16.5,16.5,0,0,0,56,76a16.72,16.72,0,0,0,16.7-16.7,21.78,21.78,0,0,0-1.3-6.4l-.11-.33-.14-.32C52,10.81,51.21,9.09,51.05,8.78h0A16.71,16.71,0,0,0,36.34,0Z"/><path class="cls-2" d="M47.09,63.16h0L36.35,39.85l-8.12,17.6L51.81,68.06h0A9.75,9.75,0,0,1,47.09,63.16Z"/><path class="cls-3" d="M64.77,55.2h0L45.32,13l-.18-.38L45,12.29h0l-.11-.19a9.66,9.66,0,0,1,.28,8.62h0L36.35,39.85,47.09,63.16h0a9.7,9.7,0,0,0,18.6-3.85A9.59,9.59,0,0,0,64.77,55.2Z"/><path class="cls-4" d="M36.34,7a9.67,9.67,0,0,0-8.63,5.29h0l-.14.32c-.06.12-.13.25-.18.38L7.92,55.2h0a9.7,9.7,0,1,0,17.68,8h0L45.17,20.72h0A9.69,9.69,0,0,0,36.34,7Z"/></g></g></svg>