<?xml version="1.0" encoding="UTF-8" standalone="no"?>
<svg
   xmlns:dc="http://purl.org/dc/elements/1.1/"
   xmlns:cc="http://creativecommons.org/ns#"
   xmlns:rdf="http://www.w3.org/1999/02/22-rdf-syntax-ns#"
   xmlns:svg="http://www.w3.org/2000/svg"
   xmlns="http://www.w3.org/2000/svg"
   xmlns:sodipodi="http://sodipodi.sourceforge.net/DTD/sodipodi-0.dtd"
   xmlns:inkscape="http://www.inkscape.org/namespaces/inkscape"
   inkscape:version="1.0 (4035a4f, 2020-05-01)"
   sodipodi:docname="adoptium_logo.svg"
   id="svg50"
   version="1.1"
   viewBox="78.254845 82.676453 450.72014 37.127801"
   width="607.22693"
   height="111.38355">
  <metadata
     id="metadata54">
    <rdf:RDF>
      <cc:Work
         rdf:about="">
        <dc:format>image/svg+xml</dc:format>
        <dc:type
           rdf:resource="http://purl.org/dc/dcmitype/StillImage" />
        <dc:title></dc:title>
      </cc:Work>
    </rdf:RDF>
  </metadata>
  <sodipodi:namedview
     inkscape:current-layer="svg50"
     inkscape:window-maximized="0"
     inkscape:window-y="25"
     inkscape:window-x="2934"
     inkscape:cy="55.691769"
     inkscape:cx="303.6135"
     inkscape:zoom="1.1494878"
     fit-margin-bottom="0"
     fit-margin-right="0"
     fit-margin-left="0"
     fit-margin-top="0"
     showgrid="false"
     id="namedview52"
     inkscape:window-height="1326"
     inkscape:window-width="2560"
     inkscape:pageshadow="2"
     inkscape:pageopacity="0"
     guidetolerance="10"
     gridtolerance="10"
     objecttolerance="10"
     borderopacity="1"
     bordercolor="#666666"
     pagecolor="#ffffff" />
  <defs
     id="defs34">
    <linearGradient
       x1="0"
       y1="0"
       x2="1"
       y2="0"
       gradientUnits="userSpaceOnUse"
       gradientTransform="matrix(-481.86772,253.81288,253.81288,481.86772,1152.2225,659.10299)"
       spreadMethod="pad"
       id="b">
      <stop
         id="stop10"
         stop-color="#421644"
         offset="0" />
      <stop
         id="stop12"
         stop-color="#151530"
         offset="1" />
    </linearGradient>
    <linearGradient
       x1="0"
       y1="0"
       x2="1"
       y2="0"
       gradientUnits="userSpaceOnUse"
       gradientTransform="matrix(265.26986,-595.41428,-595.41428,-265.26986,846.28548,1230.5087)"
       spreadMethod="pad"
       id="d">
      <stop
         id="stop15"
         stop-color="#a21058"
         offset="0" />
      <stop
         id="stop17"
         stop-color="#421644"
         offset="1" />
    </linearGradient>
    <linearGradient
       x1="0"
       y1="0"
       x2="1"
       y2="0"
       gradientUnits="userSpaceOnUse"
       gradientTransform="matrix(259.53758,595.41722,595.41722,-259.53758,649.64764,625.45614)"
       spreadMethod="pad"
       id="f">
      <stop
         id="stop20"
         stop-color="#ee1a6d"
         offset="0" />
      <stop
         id="stop22"
         stop-color="#a21058"
         offset="1" />
    </linearGradient>
    <clipPath
       clipPathUnits="userSpaceOnUse"
       id="a">
      <path
         id="path25"
         d="m 987.855,678.551 -0.019,-0.012 -107.453,233.09 -81.121,-175.981 235.708,-106.097 0.01,0.019 c -21.01,10.09 -37.828,27.52 -47.125,48.981 z" />
    </clipPath>
    <clipPath
       clipPathUnits="userSpaceOnUse"
       id="c">
      <path
         id="path28"
         d="m 1164.61,758.172 0.09,0.039 -194.618,422.019 c -0.547,1.32 -1.184,2.59 -1.789,3.88 l -1.465,3.16 -0.047,-0.02 c -0.332,0.64 -0.703,1.25 -1.054,1.89 7.382,-13.69 11.582,-29.34 11.582,-45.98 0,-14.34 -3.196,-27.91 -8.782,-40.16 l 0.059,-0.02 -88.203,-191.351 107.441,-233.09 0.031,0.012 c 14.905,-34.391 49.125,-58.473 88.995,-58.473 53.57,0 96.99,43.434 96.99,97 0,14.711 -3.37,28.602 -9.23,41.094 z" />
    </clipPath>
    <clipPath
       clipPathUnits="userSpaceOnUse"
       id="e">
      <path
         id="path31"
         d="m 880.316,1240.16 c -37.687,0 -70.265,-21.53 -86.328,-52.91 l -0.05,0.02 -1.465,-3.16 c -0.606,-1.29 -1.239,-2.56 -1.785,-3.88 l -194.622,-422.019 0.09,-0.039 c -5.859,-12.492 -9.23,-26.383 -9.23,-41.094 0,-53.566 43.418,-97 96.992,-97 39.875,0 74.094,24.082 88.996,58.473 l 0.02,-0.012 195.652,424.441 -0.059,0.02 c 5.586,12.25 8.782,25.82 8.782,40.16 0,53.57 -43.43,97 -96.993,97 z" />
    </clipPath>
  </defs>
  <path
     style="stroke-width:0.940891"
     id="path36"
     fill="#ee1a6d"
     d="m 206.0884,99.750304 h 8.50811 l -4.25357,-8.954379 z m 19.82482,8.352916 c 0,0.88209 -0.37675,1.63164 -1.12732,2.24773 -0.75153,0.6161 -1.60962,0.92323 -2.57325,0.92323 -0.65373,0 -1.24934,-0.16088 -1.78685,-0.48172 -0.53848,-0.32176 -0.96461,-0.8044 -1.27743,-1.44426 l -1.91372,-4.05671 h -13.78342 l -1.9573,4.0558 c -0.31282,0.64077 -0.7438,1.12432 -1.2968,1.44517 a 3.3945272,3.2038691 0 0 1 -1.80816,0.48172 c -0.96461,0 -1.83721,-0.30713 -2.61683,-0.92323 -0.7806,-0.61609 -1.16993,-1.36564 -1.16993,-2.24864 0,-0.48265 0.12784,-0.97808 0.38352,-1.48631 l 11.23148,-21.762544 c 0.36803,-0.722127 0.91425,-1.278805 1.63673,-1.666378 a 4.7658969,4.4982139 0 0 1 2.40183,-0.582272 c 0.85227,0 1.64642,0.193786 2.38441,0.582272 a 3.9194441,3.6993034 0 0 1 1.65804,1.666378 L 225.53163,106.616 c 0.25375,0.50823 0.38159,1.00366 0.38159,1.48722 m 34.24549,-4.92052 c 1.46048,-1.35102 2.19071,-3.41868 2.19071,-6.202989 0,-2.783389 -0.73023,-4.844651 -2.19071,-6.183786 -1.46143,-1.338221 -3.65117,-2.008245 -6.57211,-2.008245 h -3.82937 v 16.42337 h 3.82937 c 2.92094,0 5.11068,-0.67642 6.57211,-2.02835 z m -17.29417,7.08781 c -0.6237,-0.58958 -0.93458,-1.43146 -0.93458,-2.53018 V 86.259319 c 0,-1.096903 0.31088,-1.940603 0.93458,-2.529274 0.62468,-0.588671 1.51762,-0.884834 2.68269,-0.884834 h 8.5914 c 3.31899,0 6.17504,0.570389 8.573,1.707511 2.39603,1.138036 4.23324,2.764194 5.50873,4.878473 1.27645,2.115193 1.91566,4.630757 1.91566,7.548516 0,2.945186 -0.63339,5.480859 -1.89339,7.607939 -1.26387,2.12981 -3.09236,3.75505 -5.48838,4.87939 -2.39797,1.12432 -5.26854,1.68648 -8.61562,1.68648 h -8.59236 c -1.16411,0 -2.05705,-0.29342 -2.68173,-0.88301 m 63.09076,-6.68562 c 1.27742,-1.51189 1.91468,-3.713926 1.91468,-6.605179 0,-2.891251 -0.645,-5.08597 -1.93502,-6.585984 -1.29196,-1.497271 -3.05653,-2.24865 -5.29566,-2.24865 -2.27012,0 -4.04341,0.744066 -5.31793,2.229455 -1.27839,1.485388 -1.91663,3.68742 -1.91663,6.605179 0,2.917763 0.63824,5.126189 1.91663,6.624379 1.27452,1.50001 3.04781,2.24865 5.31696,2.24865 2.26916,0 4.04245,-0.75504 5.31697,-2.26785 z m -13.29435,6.14357 c -2.25462,-1.19196 -3.99208,-2.87754 -5.21043,-5.06038 -1.22125,-2.181 -1.82946,-4.743183 -1.82946,-7.688369 0,-2.943353 0.60821,-5.507363 1.83043,-7.690199 1.21738,-2.180094 2.95484,-3.859269 5.21043,-5.038439 2.25366,-1.178255 4.91408,-1.766927 7.97738,-1.766927 3.06137,0 5.71985,0.588672 7.97447,1.766927 2.25657,1.17917 3.98433,2.858345 5.1901,5.038439 1.2077,2.182836 1.80815,4.745931 1.80815,7.690199 0,2.945186 -0.6082,5.507369 -1.82849,7.688369 -1.22029,2.18284 -2.95774,3.86842 -5.21043,5.06038 -2.25463,1.19105 -4.90052,1.78612 -7.9338,1.78612 -3.0633,0 -5.72372,-0.59507 -7.97835,-1.78612 m 57.02322,-15.198497 c 0.69634,-0.562162 1.04305,-1.430544 1.04305,-2.609714 0,-2.328175 -1.41883,-3.493633 -4.25454,-3.493633 h -5.61623 v 6.947048 h 5.61623 c 1.44788,0 2.51708,-0.281538 3.21149,-0.843701 z m -15.61289,15.881317 c -0.69537,-0.65539 -1.04112,-1.54663 -1.04112,-2.67095 V 86.259319 c 0,-1.096903 0.31089,-1.940603 0.93458,-2.529274 0.62564,-0.588671 1.51762,-0.884834 2.68076,-0.884834 h 10.89155 c 3.31801,0 5.89707,0.797996 7.74203,2.389419 1.84303,1.593251 2.76598,3.808993 2.76598,6.6454 0,2.810812 -0.9307,5.019238 -2.78632,6.625289 -1.85851,1.606961 -4.43176,2.409531 -7.72169,2.409531 h -6.6806 v 6.82548 c 0,1.12432 -0.35348,2.01556 -1.06242,2.67095 -0.70989,0.6554 -1.67547,0.98356 -2.89285,0.98356 -1.19026,0 -2.13453,-0.32816 -2.8299,-0.98356 m 49.11847,-0.0402 c -0.72346,-0.65724 -1.0847,-1.53202 -1.0847,-2.63074 V 88.828813 h -5.99781 c -1.24934,0 -2.17714,-0.246803 -2.78729,-0.743151 -0.60917,-0.49452 -0.91424,-1.250469 -0.91424,-2.267846 0,-1.016463 0.30507,-1.767841 0.91424,-2.24865 0.61015,-0.481723 1.53795,-0.723955 2.78729,-0.723955 h 19.90907 c 1.24935,0 2.17715,0.242232 2.78632,0.723955 0.61015,0.480809 0.91426,1.232187 0.91426,2.24865 0,1.017377 -0.30411,1.773326 -0.91426,2.267846 -0.60917,0.496348 -1.53794,0.743151 -2.78632,0.743151 h -5.9978 v 18.912427 c 0,1.09781 -0.36318,1.97259 -1.0847,2.62983 -0.72345,0.6554 -1.68031,0.98355 -2.87251,0.98355 -1.19124,0 -2.1481,-0.32815 -2.87155,-0.98355 m 34.07505,0.0402 c -0.69344,-0.6554 -1.04209,-1.54663 -1.04209,-2.67096 V 86.259319 c 0,-1.096903 0.34865,-1.974424 1.04209,-2.629823 0.69634,-0.656313 1.63964,-0.98447 2.83087,-0.98447 1.21835,0 2.18199,0.328157 2.89188,0.98447 0.70893,0.654485 1.06437,1.532007 1.06437,2.628909 v 21.481925 c 0,1.12432 -0.35544,2.01556 -1.06437,2.67095 -0.70989,0.6554 -1.67353,0.98356 -2.89188,0.98356 -1.19123,0 -2.13453,-0.32816 -2.83087,-0.98356 m 28.58957,-2.02835 c -2.25463,-2.08777 -3.38194,-5.13991 -3.38194,-9.154571 V 86.258405 c 0,-1.096902 0.34575,-1.974424 1.04209,-2.628909 0.69439,-0.656313 1.62317,-0.98447 2.78535,-0.98447 1.16314,0 2.09192,0.328157 2.78825,0.98447 0.69441,0.654485 1.04209,1.532007 1.04209,2.628909 v 13.250578 c 0,2.034757 0.48134,3.600587 1.44594,4.698397 0.9617,1.09691 2.35342,1.64536 4.16932,1.64536 1.81299,0 3.20373,-0.54845 4.16834,-1.64536 0.96364,-1.09781 1.44691,-2.66364 1.44691,-4.698397 V 86.258405 c 0,-1.096902 0.34672,-1.974424 1.04208,-2.628909 0.69441,-0.656313 1.62318,-0.98447 2.78633,-0.98447 1.16218,0 2.0987,0.328157 2.80763,0.98447 0.70989,0.654485 1.06339,1.532007 1.06339,2.628909 v 12.969954 c 0,3.988161 -1.14087,7.032981 -3.42455,9.134461 -2.28271,2.1024 -5.57942,3.15176 -9.89013,3.15176 -4.33977,0 -7.63648,-1.04388 -9.8911,-3.13165 m 70.86281,-24.733325 c 0.67988,0.669111 1.02078,1.53932 1.02078,2.6088 v 21.844815 c 0,1.01737 -0.31282,1.81903 -0.93652,2.4077 -0.6237,0.58867 -1.44594,0.88392 -2.46769,0.88392 -0.99269,0 -1.80816,-0.29525 -2.44736,-0.88392 -0.63628,-0.58867 -0.95686,-1.39033 -0.95686,-2.4077 V 96.296889 l -4.85015,8.432441 c -0.48231,0.85741 -0.99172,1.46527 -1.5302,1.82725 -0.53944,0.36107 -1.17768,0.54205 -1.91469,0.54205 -0.73701,0 -1.3762,-0.18098 -1.91372,-0.54205 -0.53848,-0.36198 -1.04983,-0.96984 -1.5331,-1.82725 l -4.80561,-8.190206 v 11.563186 c 0,0.99087 -0.3196,1.78612 -0.95686,2.38941 -0.63919,0.60239 -1.46725,0.90312 -2.489,0.90312 -0.99366,0 -1.80912,-0.29525 -2.44832,-0.88392 -0.63629,-0.58867 -0.95491,-1.39033 -0.95491,-2.4077 V 86.258405 c 0,-1.06948 0.3467,-1.939689 1.04208,-2.6088 0.6944,-0.66911 1.58056,-1.004579 2.65751,-1.004579 0.76704,0 1.46144,0.207497 2.08514,0.622492 0.62467,0.415909 1.14765,1.010978 1.57379,1.787037 l 7.82823,13.89318 7.78562,-13.89318 c 0.87938,-1.606049 2.07061,-2.409529 3.5737,-2.409529 1.07695,0 1.95633,0.335469 2.63814,1.004579" />
  <g
     id="g40"
     transform="matrix(0.12912762,0,0,-0.12187499,5.4355254,212.7989)"
     clip-path="url(#a)">
    <path
       style="fill:url(#b)"
       id="path38"
       fill="url(#b)"
       d="m 987.855,678.551 -0.019,-0.012 -107.453,233.09 -81.121,-175.981 235.708,-106.097 0.01,0.019 c -21.01,10.09 -37.828,27.52 -47.125,48.981" />
  </g>
  <g
     id="g44"
     transform="matrix(0.12912762,0,0,-0.12187499,5.4355254,212.7989)"
     clip-path="url(#c)">
    <path
       style="fill:url(#d)"
       id="path42"
       fill="url(#d)"
       d="m 1164.61,758.172 0.09,0.039 -194.618,422.019 c -0.547,1.32 -1.184,2.59 -1.789,3.88 l -1.465,3.16 -0.047,-0.02 c -0.332,0.64 -0.703,1.25 -1.054,1.89 7.382,-13.69 11.582,-29.34 11.582,-45.98 0,-14.34 -3.196,-27.91 -8.782,-40.16 l 0.059,-0.02 -88.203,-191.351 107.441,-233.09 0.031,0.012 c 14.905,-34.391 49.125,-58.473 88.995,-58.473 53.57,0 96.99,43.434 96.99,97 0,14.711 -3.37,28.602 -9.23,41.094" />
  </g>
  <g
     id="g48"
     transform="matrix(0.12912762,0,0,-0.12187499,5.4355254,212.7989)"
     clip-path="url(#e)">
    <path
       style="fill:url(#f)"
       id="path46"
       fill="url(#f)"
       d="m 880.316,1240.16 c -37.687,0 -70.265,-21.53 -86.328,-52.91 l -0.05,0.02 -1.465,-3.16 c -0.606,-1.29 -1.239,-2.56 -1.785,-3.88 l -194.622,-422.019 0.09,-0.039 c -5.859,-12.492 -9.23,-26.383 -9.23,-41.094 0,-53.566 43.418,-97 96.992,-97 39.875,0 74.094,24.082 88.996,58.473 l 0.02,-0.012 195.652,424.441 -0.059,0.02 c 5.586,12.25 8.782,25.82 8.782,40.16 0,53.57 -43.43,97 -96.993,97" />
  </g>
</svg>
