<?xml version="1.0" encoding="UTF-8" standalone="no"?>
<svg
   xmlns:dc="http://purl.org/dc/elements/1.1/"
   xmlns:cc="http://creativecommons.org/ns#"
   xmlns:rdf="http://www.w3.org/1999/02/22-rdf-syntax-ns#"
   xmlns:svg="http://www.w3.org/2000/svg"
   xmlns="http://www.w3.org/2000/svg"
   xmlns:sodipodi="http://sodipodi.sourceforge.net/DTD/sodipodi-0.dtd"
   xmlns:inkscape="http://www.inkscape.org/namespaces/inkscape"
   inkscape:version="1.0 (4035a4f, 2020-05-01)"
   sodipodi:docname="alibaba.svg"
   id="svg12"
   version="1.1"
   fill="#373c41"
   height="25"
   width="120"
   viewBox="-22.98 -3.25 120 25">
  <metadata
     id="metadata18">
    <rdf:RDF>
      <cc:Work
         rdf:about="">
        <dc:format>image/svg+xml</dc:format>
        <dc:type
           rdf:resource="http://purl.org/dc/dcmitype/StillImage" />
        <dc:title></dc:title>
      </cc:Work>
    </rdf:RDF>
  </metadata>
  <defs
     id="defs16" />
  <sodipodi:namedview
     inkscape:current-layer="svg12"
     inkscape:window-maximized="1"
     inkscape:window-y="25"
     inkscape:window-x="0"
     inkscape:cy="30"
     inkscape:cx="60"
     inkscape:zoom="5.8166667"
     showgrid="false"
     id="namedview14"
     inkscape:window-height="1387"
     inkscape:window-width="2560"
     inkscape:pageshadow="2"
     inkscape:pageopacity="0"
     guidetolerance="10"
     gridtolerance="10"
     objecttolerance="10"
     borderopacity="1"
     bordercolor="#666666"
     pagecolor="#ffffff" />
  <path
     id="path10"
     d="m -12.01424,1.8881032 c -1.114,0.225 -2.3,1.118 -2.807,2.094 -0.507,0.976 -0.515,1.215 -0.515,5.3200001 l 0.092,4.2799997 c 0.327,1.67 1.633,2.977 3.304,3.304 0.506,0.092 7.0959993,0.138 7.0959993,0.037 0,-0.074 -0.56,-2.282 -0.6,-2.3 -0.01,-0.018 -1.178,-0.276 -2.595,-0.58 -3.3039993,-0.718 -3.2029993,-0.7 -3.4799993,-1.022 l -0.24,-0.285 V 6.0541032 l 0.24,-0.3 c 0.276,-0.33 0.175,-0.304 3.4799993,-1.022 l 2.595,-0.58 c 0.028,-0.028 0.6,-2.236 0.6,-2.3 0,-0.087 -6.7279993,-0.046 -7.1699993,0.046 z m 10.6669993,0.014 c 0.01,0.166 0.52500004,2.2 0.58000004,2.246 0.018,0.028 1.27999997,0.313 2.79999996,0.635 l 2.973,0.718 a 1.13,1.13 0 0 1 0.396,0.387 c 0.147,0.258 0.166,0.534 0.166,3.4970001 l -0.166,3.4969997 a 1.21,1.21 0 0 1 -0.396,0.387 c -0.12,0.064 -1.454,0.387 -2.973,0.718 l -2.79999996,0.635 a 24.84,24.84 0 0 0 -0.58000004,2.246 c 0,0.1 0.66300004,0.12 3.57,0.092 4.013,-0.037 4.06,-0.046 5.08,-0.736 a 4.2,4.2 0 0 0 1.583,-2.071 c 0.212,-0.617 0.212,-0.672 0.212,-4.7669997 l -0.212,-4.7700001 a 4.2,4.2 0 0 0 -1.583,-2.071 c -1.022,-0.7 -1.068,-0.7 -5.08,-0.736 -2.90799996,-0.028 -3.57,-0.014 -3.57,0.092 z m 17.1270007,3.13 c -0.635,1.325 -1.27,2.963 -1.923,4.9500001 l -1.307,4.4819997 c 0.245,0.024 0.5,0.033 0.736,0.028 h 0.727 l 0.1,-0.396 0.36,-1.26 0.248,-0.874 h 5.053 l 0.258,0.92 0.35,1.26 0.092,0.35 h 0.727 l 0.736,-0.028 c 0,-0.018 -0.184,-0.7 -0.414,-1.528 -0.837,-3.0279997 -1.905,-5.9999998 -2.807,-7.8779998 l -0.48,-0.966 h -2.006 z m 2.18,1.84 1.307,3.5339998 c 0,0.018 -0.9,0.037 -2.025,0.037 -1.125,0 -2.025,-0.037 -2.025,-0.074 0,-0.156 0.93,-2.6319998 1.38,-3.6999998 0.35,-0.82 0.525,-1.114 0.644,-1.114 0.119,0 0.304,0.34 0.718,1.307 z m 4.896,2.4200001 v 5.1999997 h 1.473 V 4.0921032 h -1.473 z m 3.313,-5.0800001 a 1.2,1.2 0 0 0 -0.405,0.46 c -0.147,0.313 -0.156,0.387 -0.037,0.7 0.16,0.462 0.656,0.714 1.123,0.57 0.46,-0.147 0.653,-0.414 0.653,-0.893 0,-0.35 -0.046,-0.45 -0.304,-0.68 -0.322,-0.285 -0.653,-0.34 -1.03,-0.147 z m 2.67,5.0620001 v 5.1999997 l 1.132,0.083 2.135,0.083 c 0.93,0 1.058,-0.018 1.546,-0.267 0.575,-0.26 1.006,-0.763 1.178,-1.37 0.055,-0.22 0.083,-1.196 0.064,-2.53 -0.028,-2.0519997 -0.037,-2.1999998 -0.23,-2.5679998 -0.36,-0.663 -0.902,-0.985 -1.905,-1.123 -0.534,-0.074 -1.86,0 -2.264,0.13 -0.175,0.055 -0.184,0.018 -0.184,-1.37 v -1.446 h -1.473 z m 4.187,-0.9940001 a 0.75,0.75 0 0 1 0.414,0.3680001 c 0.12,0.313 0.12,3.7369997 0,4.0399997 -0.138,0.377 -0.6,0.552 -1.473,0.552 a 8.47,8.47 0 0 1 -1.215,-0.074 l -0.442,-0.064 V 8.3441033 l 0.534,-0.092 c 0.82,-0.138 1.822,-0.13 2.18,0.028 z m 10.446,1.0030001 v 5.1999997 l 0.902,0.046 1.877,0.12 c 1.26,0.074 2.052,-0.13 2.568,-0.672 0.663,-0.68 0.68,-0.764 0.7,-3.083 0.028,-1.6839997 0.01,-2.1999997 -0.1,-2.5769997 -0.248,-0.8650001 -0.966,-1.4080001 -2.062,-1.5370001 -0.552,-0.064 -1.997,0.01 -2.292,0.13 -0.092,0.028 -0.12,-0.285 -0.12,-1.38 v -1.427 h -1.473 z m 4.132,-1.0450001 c 0.156,0.055 0.33,0.1750001 0.377,0.2670001 0.1,0.184 0.13,4.0299997 0.037,4.2799997 -0.156,0.405 -1.4,0.58 -2.632,0.377 l -0.442,-0.064 V 8.3461033 l 0.534,-0.092 c 0.736,-0.12 1.776,-0.13 2.126,-0.014 z m 14.624,-4.054 c -0.92,0.166 -1.4,0.387 -1.868,0.865 -0.736,0.736 -0.782,1.003 -0.782,4.3350001 0,3.3319997 0.046,3.5979997 0.8,4.3439997 0.387,0.396 0.6,0.515 1.15,0.7 0.6,0.184 0.874,0.212 2.108,0.212 1.068,0 1.62,-0.046 2.172,-0.175 a 6.14,6.14 0 0 0 0.865,-0.239 c 0.074,-0.046 0.064,-0.212 -0.046,-0.653 a 4.01,4.01 0 0 0 -0.212,-0.653 c -0.037,-0.037 -0.267,-0.01 -0.506,0.064 -0.82,0.248 -2.255,0.35 -3.148,0.24 -0.893,-0.11 -1.224,-0.258 -1.5,-0.617 -0.184,-0.24 -0.193,-0.34 -0.193,-3.2119997 0,-2.8720001 0.01,-2.9730001 0.193,-3.2120001 0.285,-0.36 0.607,-0.497 1.5,-0.617 0.893,-0.12 2.328,-0.01 3.148,0.24 l 0.497,0.138 c 0.074,0 0.396,-1.28 0.34,-1.334 -0.028,-0.028 -0.368,-0.13 -0.773,-0.24 -0.8,-0.212 -2.973,-0.313 -3.737,-0.175 z m 5.816,5.1080001 v 5.1999997 h 1.38 V 4.0921032 h -1.38 z m 20.9,-3.8200001 v 1.38 l -0.525,-0.055 -0.736,-0.092 c -0.313,-0.055 -1.473,0.13 -1.804,0.295 a 2.47,2.47 0 0 0 -1.012,1.003 c -0.184,0.3400001 -0.202,0.5340001 -0.23,2.3999998 -0.037,2.512 0.037,2.88 0.7,3.534 0.598,0.58 1.307,0.773 2.512,0.7 l 1.712,-0.1 0.847,-0.055 V 4.1021032 h -1.472 z m -0.156,2.807 c 0.147,0.064 0.156,0.2670001 0.156,2.4479998 v 2.374 l -0.34,0.064 c -0.6,0.12 -1.712,0.092 -2.034,-0.046 -0.166,-0.074 -0.34,-0.202 -0.387,-0.295 -0.047,-0.093 -0.092,-1.068 -0.092,-2.172 0,-2.1999997 0.018,-2.2639997 0.506,-2.4199998 0.295,-0.092 1.914,-0.055 2.2,0.046 z m -50.46,-1.513 a 11.83,11.83 0 0 0 -1.224,0.23 c -0.497,0.12 -0.617,0.184 -0.58,0.304 0.028,0.083 0.092,0.35 0.156,0.607 0.064,0.257 0.13,0.4880001 0.166,0.5150001 0.036,0.027 0.433,-0.018 0.884,-0.1 1.537,-0.3220001 2.577,-0.1750001 2.724,0.377 a 4.27,4.27 0 0 1 0.074,0.745 l 0.01,0.515 -0.874,-0.046 c -2.338,-0.12 -3.746,0.7549997 -3.764,2.3279997 -0.01,0.745 0.23,1.325 0.727,1.785 0.58,0.534 1.196,0.7 2.384,0.617 l 1.923,-0.1 0.994,-0.064 -0.055,-6.1849997 -0.258,-0.4330001 c -0.515,-0.87 -1.74,-1.275 -3.286,-1.077 z m 2.144,4.6569998 c 0.092,0.055 0.083,1.684 -0.01,1.684 -0.046,0 -0.515,0.046 -1.05,0.1 -1.537,0.147 -2.098,-0.083 -2.098,-0.874 0,-0.34 0.046,-0.442 0.276,-0.644 0.2,-0.155 0.458,-0.253 0.718,-0.285 l 0.57,-0.092 c 0.166,-0.037 1.5,0.05 1.592,0.115 z m 12.535,-4.6699998 -1.224,0.24 c -0.617,0.147 -0.672,0.184 -0.626,0.36 l 0.166,0.68 c 0.1,0.4600001 0.12,0.4880001 0.34,0.4330001 1.233,-0.3220001 2.42,-0.4140001 2.9,-0.2400001 0.433,0.1660001 0.525,0.3500001 0.525,1.0500001 v 0.663 h -1.142 c -1.445,0 -2.108,0.1839997 -2.743,0.7549997 a 2.05,2.05 0 0 0 -0.709,1.841 c 0.156,1.5 1.224,2.227 3.138,2.108 l 1.923,-0.1 0.994,-0.064 -0.028,-3.046 c -0.028,-2.9269997 -0.037,-3.0649997 -0.23,-3.4239998 -0.525,-0.985 -1.712,-1.427 -3.295,-1.242 z m 1.822,4.5999998 h 0.248 v 1.74 l -0.525,0.064 c -1.012,0.13 -1.997,0.1 -2.255,-0.074 -0.515,-0.34 -0.497,-1.233 0.028,-1.5 0.36,-0.184 1.215,-0.313 1.785,-0.258 l 0.718,0.037 z m 17.836,-4.6019998 a 2.57,2.57 0 0 0 -1.427,0.865 c -0.47,0.617 -0.515,0.9200001 -0.515,3.1299998 0,2.264 0.064,2.53 0.672,3.166 0.6,0.617 0.884,0.7 2.273,0.7 1.427,0 1.75,-0.1 2.338,-0.8 0.56,-0.663 0.626,-0.994 0.6,-3.322 -0.028,-1.8959997 -0.046,-2.0799997 -0.23,-2.4299998 a 2.76,2.76 0 0 0 -1.206,-1.16 c -0.47,-0.212 -1.85,-0.304 -2.494,-0.166 z m 2.025,1.528 c 0.47,0.2400001 0.543,0.5700001 0.543,2.3839998 0,1.72 -0.064,2.043 -0.46,2.393 -0.285,0.258 -1.583,0.322 -2.052,0.092 -0.552,-0.258 -0.617,-0.525 -0.617,-2.485 0,-1.8769997 0.055,-2.1259997 0.534,-2.3839998 0.35,-0.193 1.684,-0.193 2.052,0 z m -48.787,2.3839998 v 3.82 h 1.38 V 6.8431032 h -1.38 z m 51.85,-3.6999998 c -0.028,0.074 -0.037,1.4540001 -0.018,3.0649998 0.028,2.65 0.046,2.963 0.202,3.258 0.543,1.022 1.463,1.445 2.963,1.344 l 2.616,-0.157 V 6.8531032 h -1.4 v 6.2499998 l -0.433,0.064 c -0.8,0.13 -1.795,0.083 -2.117,-0.083 l -0.322,-0.184 c -0.01,-0.01 -0.046,-1.362 -0.074,-2.9999997 l -0.046,-3.0000001 -0.672,-0.028 c -0.506,-0.018 -0.68,0 -0.718,0.1 z M -5.4542407,9.1901033 a 0.65,0.65 0 0 0 -0.018,0.304 c 0.028,0.156 0.193,0.166 2.356,0.193 l 2.32000004,0.018 v -0.644 H -3.0962407 c -1.923,0 -2.32,0.018 -2.356,0.13 z" />
</svg>
