<svg width="203" height="58" viewBox="0 0 203 58" fill="none" xmlns="http://www.w3.org/2000/svg">
<path d="M79.8423 26.2522H92.2703L103.193 52.1088H92.4106L91.3352 49.1394H80.7775L79.6927 52.1088H68.9199L79.8423 26.2522ZM86.0891 34.0761H86.033L83.0031 42.8332H89.1096L86.0891 34.0761Z" fill="#1E448C"/>
<path d="M105.67 46.6415L121.044 32.7753H106.708V26.2522H134.697V31.8986L119.678 45.5857H134.304V52.1088H105.67V46.6415Z" fill="#1E448C"/>
<path d="M139.578 26.2522H149.715V41.9C149.715 45.2275 151.585 46.2738 154.914 46.2738C158.243 46.2738 160.132 45.2275 160.132 41.9V26.2522H170.26V42.277C170.26 50.4968 165.341 52.9948 154.914 52.9948C144.488 52.9948 139.578 50.4968 139.578 42.277V26.2522Z" fill="#1E448C"/>
<path d="M176.834 26.2522H186.962V45.1521H202.663V52.1088H176.834V26.2522Z" fill="#1E448C"/>
<path d="M9.99609 57.0671C26.6042 42.541 45.0264 24.0747 59.6894 25.4039C50.871 19.2579 31.6352 25.5358 11.1557 42.2771L9.99609 57.0671Z" fill="#1E448C"/>
<path d="M0 49.9041C10.1182 -15.76 42.6891 -16.1559 53.2094 49.9041C52.0405 52.2607 47.7575 56.3141 43.0818 57.4924C38.7989 -6.86151 14.663 -7.25741 9.99663 57.0682C7.92899 56.6371 5.97275 55.7777 4.25192 54.5444C2.53108 53.3112 1.08318 51.731 0 49.9041" fill="#1A68B3"/>
</svg>
