<?xml version="1.0" encoding="utf-8"?>
<!-- Generator: Adobe Illustrator 21.1.0, SVG Export Plug-In . SVG Version: 6.00 Build 0)  -->
<svg version="1.1" id="Layer_1" xmlns="http://www.w3.org/2000/svg" xmlns:xlink="http://www.w3.org/1999/xlink" x="0px" y="0px"
	 viewBox="0 0 293 30" style="enable-background:new 0 0 293 30;" xml:space="preserve">
<style type="text/css">
	.st0{fill:#231F20;}
</style>
<g>
	<path class="st0" d="M9.7,1H3.4C1.5,1,0,2.5,0,4.4v20.8c0,1.9,1.5,3.4,3.4,3.4h6.3c8.5,0,14.7-5.8,14.7-13.9v-0.1
		C24.4,6.8,18.2,1,9.7,1z M20.8,14.9L20.8,14.9c0,6.3-4.6,10.6-11.1,10.6H3.5V5.3c0-0.5,0.4-1,1-1h5.2C16.2,4.3,20.8,8.6,20.8,14.9z
		"/>
	<path class="st0" d="M152.7,1h-7c-1.9,0-3.4,1.5-3.4,3.4v24c0,0.1,0.1,0.2,0.2,0.2h2.5c0.4,0,0.8-0.3,0.8-0.8v-8.8h0h5.9
		c6.2,0,11.4-2.8,11.4-9.2V9.9C163.1,4.5,159,1,152.7,1z M146.7,4.3h5.8c4.5,0,7.1,2.1,7.1,5.7v0.1c0,3.5-2.9,5.8-7.3,5.8h-6.5V5.2
		C145.8,4.7,146.2,4.3,146.7,4.3z"/>
	<path class="st0" d="M292.9,28.4l-10.3-13.8l9.9-13.2c0.1-0.1,0.1-0.2,0-0.2c0-0.1-0.1-0.1-0.2-0.1h-2c-1.1,0-2.1,0.5-2.8,1.4
		l-7.2,9.7l-7.2-9.7c-0.6-0.9-1.7-1.4-2.8-1.4h-2c-0.1,0-0.2,0-0.2,0.1c0,0.1,0,0.2,0,0.2l9.9,13.2l-10.3,13.8
		c-0.1,0.1-0.1,0.2,0,0.2c0,0.1,0.1,0.1,0.2,0.1h1.9c1.1,0,2.1-0.5,2.8-1.4l7.6-10.2l7.6,10.2c0.6,0.9,1.7,1.4,2.8,1.4h2
		c0.1,0,0.2,0,0.2-0.1C293,28.5,293,28.4,292.9,28.4z"/>
	<path class="st0" d="M209.9,1h-2.5c-0.4,0-0.8,0.3-0.8,0.8v11.4h-15.3V1.2c0-0.1-0.1-0.2-0.2-0.2h-2.5c-0.4,0-0.8,0.3-0.8,0.8v26.7
		c0,0.1,0.1,0.2,0.2,0.2h2.5c0.4,0,0.8-0.3,0.8-0.8V16.5h15.3v12c0,0.1,0.1,0.2,0.2,0.2h2.5c0.4,0,0.8-0.3,0.8-0.8V1.2
		C210.1,1.1,210,1,209.9,1z"/>
	<path class="st0" d="M242.7,1h-2.5c-0.4,0-0.8,0.3-0.8,0.8v26.7c0,0.1,0.1,0.2,0.1,0.2c0,0,0.1,0,0.1,0c0,0,0,0,0.1,0h2.5
		c0.4,0,0.8-0.3,0.8-0.8v-2.3v0v0V1.2C242.9,1.1,242.8,1,242.7,1z"/>
	<g>
		<path class="st0" d="M69.4,1H53.5c-1.8,0-3.5,1.2-4,3c0,0.1,0,0.2,0,0.2c0,0.1,0.1,0.1,0.2,0.1h15.9c1.8,0,3.5-1.2,4-3
			c0-0.1,0-0.2,0-0.2C69.5,1,69.5,1,69.4,1z"/>
		<path class="st0" d="M68,13.2H52.1c-1.8,0-3.5,1.2-4,3c0,0.1,0,0.2,0,0.2c0,0.1,0.1,0.1,0.2,0.1h15.9c1.8,0,3.5-1.2,4-3
			c0-0.1,0-0.2,0-0.2C68.1,13.2,68.1,13.2,68,13.2z"/>
		<path class="st0" d="M66.2,25.4H50.3c-1.8,0-3.5,1.2-4,3c0,0.1,0,0.2,0,0.2c0,0.1,0.1,0.1,0.2,0.1h15.9c1.8,0,3.5-1.2,4-3
			c0-0.1,0-0.2,0-0.2C66.3,25.5,66.2,25.4,66.2,25.4z"/>
	</g>
	<path class="st0" d="M97,27V1.8C97,1.4,97.4,1,97.9,1l2.5,0c0.1,0,0.2,0.1,0.2,0.2v24.2h16.4c0.1,0,0.2,0.1,0.2,0.2V28
		c0,0.4-0.3,0.7-0.7,0.7H98.8C97.8,28.7,97,27.9,97,27z"/>
</g>
</svg>
