<?xml version="1.0" encoding="UTF-8" standalone="no"?>
<svg
   xmlns:dc="http://purl.org/dc/elements/1.1/"
   xmlns:cc="http://creativecommons.org/ns#"
   xmlns:rdf="http://www.w3.org/1999/02/22-rdf-syntax-ns#"
   xmlns:svg="http://www.w3.org/2000/svg"
   xmlns="http://www.w3.org/2000/svg"
   xmlns:sodipodi="http://sodipodi.sourceforge.net/DTD/sodipodi-0.dtd"
   xmlns:inkscape="http://www.inkscape.org/namespaces/inkscape"
   inkscape:version="1.0 (4035a4f, 2020-05-01)"
   sodipodi:docname="huawei.svg"
   id="svg16"
   version="1.1"
   viewBox="-20.225205 -7.40295 146.07094 16.656638"
   width="1000"
   height="300">
  <metadata
     id="metadata22">
    <rdf:RDF>
      <cc:Work
         rdf:about="">
        <dc:format>image/svg+xml</dc:format>
        <dc:type
           rdf:resource="http://purl.org/dc/dcmitype/StillImage" />
        <dc:title></dc:title>
      </cc:Work>
    </rdf:RDF>
  </metadata>
  <defs
     id="defs20" />
  <sodipodi:namedview
     inkscape:current-layer="svg16"
     inkscape:window-maximized="1"
     inkscape:window-y="25"
     inkscape:window-x="0"
     inkscape:cy="400"
     inkscape:cx="600"
     inkscape:zoom="0.58166667"
     showgrid="false"
     id="namedview18"
     inkscape:window-height="1387"
     inkscape:window-width="2560"
     inkscape:pageshadow="2"
     inkscape:pageopacity="0"
     guidetolerance="10"
     gridtolerance="10"
     objecttolerance="10"
     borderopacity="1"
     bordercolor="#666666"
     pagecolor="#ffffff" />
  <g
     transform="translate(-15.820863,-14.314115)"
     id="g14"
     fill="none">
    <path
       id="path10"
       d="m 49.5347,9.8 h -3.1 v 14.8 h 3.1 v -6 h 6.8 v 6 h 3 V 9.8 h -3 v 6 h -6.8 z m 23.8,8.5 c 0,2.4 -1.2,3.7 -3.4,3.7 -2.2,0 -3.4,-1.3 -3.4,-3.8 V 9.8 h -3 v 8.5 c 0,4.2 2.3,6.6 6.4,6.6 4.1,0 6.4,-2.4 6.4,-6.7 V 9.8 h -3 z m 29,-8.5 -3.4,10.2 -3.3,-10.2 h -3.2 l 5.2,14.8 h 2.5 l 3.4,-9.7 3.3,9.7 h 2.6 l 5.1,-14.8 h -3.1 l -3.3,10.2 -3.4,-10.2 z m 23.1,5.7 h -5.5 v -3 h 8 V 9.8 h -11 v 14.8 h 11.3 v -2.7 h -8.3 v -3.7 h 5.5 z m 6.4,-5.7 h 3 v 14.8 h -3 z m -42.8,11.7 1.3,3.1 h 3.2 l -6.5,-14.8 -0.1,-0.1 h -2.6 l -6.5,14.9 h 3.1 l 1.3,-2.9 0.1,-0.2 z m -3.4,-8 2.1,5 0.1,0.3 h -4.6 l 0.1,-0.3 z"
       fill="#262729" />
    <path
       id="path12"
       fill="#cf0a2c"
       d="m 16.8347,23.1 c 0,0 0.1,-0.1 0,-0.1 -4.6,-10 -10.9,-17.7 -10.9,-17.7 0,0 -3.4,3.2 -3.2,6.5 0.1,2.5 2,3.9 2,3.9 3,2.9 10.2,6.6 11.9,7.4 h 0.2 m -1.2,2.5 c 0,-0.1 -0.2,-0.1 -0.2,-0.1 l -12,0.4 c 1.3,2.3 3.5,4.1 5.8,3.6 1.6,-0.4 5.2,-2.9 6.3,-3.7 0.2,-0.2 0.1,-0.2 0.1,-0.2 m 0.2,-1.1 c 0.1,-0.1 0,-0.2 0,-0.2 -5.3,-3.6 -15.5,-9 -15.5,-9 -0.9,2.9 0.3,5.2 0.3,5.2 1.3,2.8 3.8,3.6 3.8,3.6 1.1,0.5 2.3,0.5 2.3,0.5 h 9 c 0.1,0 0.1,-0.1 0.1,-0.1 m 0.8,-24.4 c -0.5,0 -1.9,0.4 -1.9,0.4 -3.2,0.8 -3.9,3.7 -3.9,3.7 -0.6,1.8 0,3.8 0,3.8 1.1,4.7 6.3,12.5 7.4,14.1 l 0.1,0.1 c 0.1,0 0.1,-0.1 0.1,-0.1 1.8,-17.5 -1.8,-22 -1.8,-22 m 4,22 c 0.1,0 0.2,-0.1 0.2,-0.1 1.2,-1.7 6.3,-9.4 7.4,-14.1 0,0 0.6,-2.3 0,-3.8 0,0 -0.8,-2.9 -4,-3.7 0,0 -0.9,-0.2 -1.9,-0.4 0,0 -3.6,4.6 -1.8,21.9 0,0.2 0.1,0.2 0.1,0.2 m 2.8,3.4 c 0,0 -0.1,0 -0.1,0.1 v 0.2 c 1.2,0.8 4.6,3.3 6.3,3.7 0,0 3.1,1.1 5.8,-3.6 z m 15.3,-10.3 c 0,0 -10.2,5.5 -15.5,9.1 0,0 -0.1,0.1 -0.1,0.2 0,0 0,0.1 0.1,0.1 h 9.2 c 0,0 0.9,0 2.1,-0.5 0,0 2.5,-0.8 3.9,-3.7 0,-0.1 1.2,-2.4 0.3,-5.2 m -16.5,7.9 c 0,0 0.1,0.1 0.2,0 1.7,-0.9 8.9,-4.5 11.9,-7.4 0,0 1.9,-1.5 2,-3.9 0.2,-3.4 -3.2,-6.5 -3.2,-6.5 0,0 -6.3,7.5 -10.9,17.6 0,0 -0.1,0.1 0,0.2" />
  </g>
</svg>
